<mxfile host="app.diagrams.net" modified="2024-10-10T23:00:25.007Z" agent="Mozilla/5.0 (Windows NT 10.0; Win64; x64) AppleWebKit/537.36 (KHTML, like Gecko) Chrome/129.0.0.0 Safari/537.36" etag="9VIqmfpKSRUOaAYQRepE" version="24.0.5" type="device">
  <diagram name="PÃ¡gina-1" id="F0eF4O_PR1IcMT1CeqN9">
    <mxGraphModel dx="1500" dy="746" grid="1" gridSize="35" guides="1" tooltips="1" connect="1" arrows="1" fold="1" page="1" pageScale="1" pageWidth="690" pageHeight="980" math="0" shadow="0">
      <root>
        <mxCell id="0" />
        <mxCell id="1" parent="0" />
        <mxCell id="f158t_sfv2qWzC_w8PwX-10" style="rounded=0;orthogonalLoop=1;jettySize=auto;html=1;exitX=1;exitY=0.3333333333333333;exitDx=0;exitDy=0;exitPerimeter=0;entryX=0;entryY=0.5;entryDx=0;entryDy=0;" edge="1" parent="1" source="f158t_sfv2qWzC_w8PwX-1" target="f158t_sfv2qWzC_w8PwX-4">
          <mxGeometry relative="1" as="geometry" />
        </mxCell>
        <mxCell id="f158t_sfv2qWzC_w8PwX-11" style="edgeStyle=none;rounded=0;orthogonalLoop=1;jettySize=auto;html=1;exitX=1;exitY=1;exitDx=0;exitDy=0;exitPerimeter=0;entryX=0;entryY=0.5;entryDx=0;entryDy=0;" edge="1" parent="1" source="f158t_sfv2qWzC_w8PwX-1" target="f158t_sfv2qWzC_w8PwX-3">
          <mxGeometry relative="1" as="geometry" />
        </mxCell>
        <mxCell id="f158t_sfv2qWzC_w8PwX-1" value="Actor" style="shape=umlActor;verticalLabelPosition=bottom;verticalAlign=top;html=1;outlineConnect=0;" vertex="1" parent="1">
          <mxGeometry x="430" y="180" width="30" height="60" as="geometry" />
        </mxCell>
        <mxCell id="f158t_sfv2qWzC_w8PwX-9" style="rounded=0;orthogonalLoop=1;jettySize=auto;html=1;entryX=0;entryY=1;entryDx=0;entryDy=0;" edge="1" parent="1" source="f158t_sfv2qWzC_w8PwX-3" target="f158t_sfv2qWzC_w8PwX-7">
          <mxGeometry relative="1" as="geometry" />
        </mxCell>
        <mxCell id="f158t_sfv2qWzC_w8PwX-3" value="Consultar rematricula" style="ellipse;whiteSpace=wrap;html=1;shadow=0;" vertex="1" parent="1">
          <mxGeometry x="590" y="230" width="120" height="80" as="geometry" />
        </mxCell>
        <mxCell id="f158t_sfv2qWzC_w8PwX-8" style="rounded=0;orthogonalLoop=1;jettySize=auto;html=1;exitX=1;exitY=0.5;exitDx=0;exitDy=0;dashed=1;" edge="1" parent="1" source="f158t_sfv2qWzC_w8PwX-4" target="f158t_sfv2qWzC_w8PwX-7">
          <mxGeometry relative="1" as="geometry" />
        </mxCell>
        <mxCell id="f158t_sfv2qWzC_w8PwX-4" value="Consultar agenda" style="ellipse;whiteSpace=wrap;html=1;shadow=0;" vertex="1" parent="1">
          <mxGeometry x="590" y="105" width="110" height="90" as="geometry" />
        </mxCell>
        <mxCell id="f158t_sfv2qWzC_w8PwX-7" value="Fazer loogin" style="ellipse;whiteSpace=wrap;html=1;shadow=0;" vertex="1" parent="1">
          <mxGeometry x="810" y="170" width="120" height="80" as="geometry" />
        </mxCell>
        <mxCell id="f158t_sfv2qWzC_w8PwX-12" value="Consultar Mural" style="ellipse;whiteSpace=wrap;html=1;shadow=0;" vertex="1" parent="1">
          <mxGeometry x="590" width="120" height="80" as="geometry" />
        </mxCell>
        <mxCell id="f158t_sfv2qWzC_w8PwX-51" style="edgeStyle=none;rounded=0;orthogonalLoop=1;jettySize=auto;html=1;exitX=0.75;exitY=0.1;exitDx=0;exitDy=0;exitPerimeter=0;entryX=-0.026;entryY=0.718;entryDx=0;entryDy=0;entryPerimeter=0;" edge="1" parent="1" source="f158t_sfv2qWzC_w8PwX-1" target="f158t_sfv2qWzC_w8PwX-12">
          <mxGeometry relative="1" as="geometry" />
        </mxCell>
        <mxCell id="f158t_sfv2qWzC_w8PwX-52" value="Consultar caledario" style="ellipse;whiteSpace=wrap;html=1;shadow=0;" vertex="1" parent="1">
          <mxGeometry x="590" y="315" width="120" height="85" as="geometry" />
        </mxCell>
        <mxCell id="f158t_sfv2qWzC_w8PwX-53" value="Consultar rematricula" style="ellipse;whiteSpace=wrap;html=1;shadow=0;" vertex="1" parent="1">
          <mxGeometry x="590" y="410" width="120" height="80" as="geometry" />
        </mxCell>
      </root>
    </mxGraphModel>
  </diagram>
</mxfile>
